<svg id="Layer_1" data-name="Layer 1" xmlns="http://www.w3.org/2000/svg" xmlns:xlink="http://www.w3.org/1999/xlink" viewBox="0 0 285.91 53.35"><defs><style>.cls-1{fill:#fff;}.cls-2{fill:none;}.cls-3{fill:#cf2030;}.cls-4{fill:#f05730;}.cls-5{fill:#f9a21d;}.cls-6{fill:#e92941;}.cls-7{fill:url(#linear-gradient);}.cls-8{fill:url(#linear-gradient-2);}.cls-9{fill:url(#linear-gradient-3);}</style><linearGradient id="linear-gradient" x1="-5074.05" y1="217.38" x2="-5074.05" y2="239.53" gradientTransform="translate(5093.75 -206.2)" gradientUnits="userSpaceOnUse"><stop offset="0" stop-color="#e92941"/><stop offset="0.47" stop-color="#cf2030"/></linearGradient><linearGradient id="linear-gradient-2" x1="12464.37" y1="-393.35" x2="12464.37" y2="-371.2" gradientTransform="translate(12498.03 -349.5) rotate(180)" gradientUnits="userSpaceOnUse"><stop offset="0" stop-color="#f58721"/><stop offset="0.44" stop-color="#f05625"/></linearGradient><linearGradient id="linear-gradient-3" x1="-5081.09" y1="232.87" x2="-5052.94" y2="232.87" gradientTransform="translate(5093.75 -206.2)" gradientUnits="userSpaceOnUse"><stop offset="0" stop-color="#f05730"/><stop offset="1" stop-color="#cf2030"/></linearGradient></defs><title>IS-Logo_RGB</title><path class="cls-1" d="M192.6,21.09l-3,1.37A2,2,0,0,0,187.74,21a1,1,0,0,0-1.16,1c0,2,6.16,1.79,6.16,6.3,0,2.73-1.94,4.69-5.17,4.69a5.13,5.13,0,0,1-5-3.53l3-1.49a2.59,2.59,0,0,0,2.22,1.64c.86,0,1.3-.38,1.3-1,0-2-6.11-1.79-6.11-6.52,0-2.66,1.92-4.39,4.85-4.39A4.86,4.86,0,0,1,192.6,21.09Z"/><path class="cls-1" d="M198.81,21.64h1.88v2.85h-1.88v4.07c0,1,.65,1.2,1.37,1.2.19,0,.36,0,.59,0v3a5.92,5.92,0,0,1-1.35.12c-2.61,0-4.13-1.2-4.13-4.49v-3.9h-1.08V21.64h1.08V19.3h3.52Z"/><path class="cls-1" d="M209.41,25a4,4,0,0,0-.57,0c-1.71,0-2.28,1.24-2.28,2.91v4.89H203V21.64h3.44v1.47a3.13,3.13,0,0,1,2.93-1.75Z"/><path class="cls-1" d="M229.15,21.64H231v2.85h-1.87v4.07c0,1,.65,1.2,1.37,1.2.19,0,.36,0,.59,0v3a6,6,0,0,1-1.35.12c-2.62,0-4.14-1.2-4.14-4.49v-3.9h-1.07V21.64h1.07V19.3h3.53Z"/><path class="cls-1" d="M236.43,28.09a2.21,2.21,0,0,0,2.35,1.84,2.87,2.87,0,0,0,2.32-1.18l2.32,1.79A5.31,5.31,0,0,1,238.71,33a5.55,5.55,0,0,1-5.88-5.78c0-3.25,2.19-5.85,5.44-5.85,3.52,0,5.44,2.26,5.44,6,0,.21,0,.44,0,.69Zm0-2.08h3.86a1.93,1.93,0,0,0-1.85-2A2.11,2.11,0,0,0,236.39,26Z"/><path class="cls-1" d="M259.22,18.76a2,2,0,1,1,2,1.89A1.89,1.89,0,0,1,259.22,18.76Zm3.76,14h-3.52V21.64H263Z"/><path class="cls-1" d="M277.13,31.09l2-1.92a3.47,3.47,0,0,0,2.45,1c.67,0,1-.21,1-.61,0-1.27-5.06-.72-5.06-4.75,0-2.13,1.85-3.42,4.26-3.42a4.71,4.71,0,0,1,4,1.9l-2.28,1.8a2.65,2.65,0,0,0-1.84-.87c-.5,0-.8.21-.8.55,0,1.39,5.11.59,5.11,4.6,0,2.26-2,3.65-4.52,3.65A5.3,5.3,0,0,1,277.13,31.09Z"/><path class="cls-1" d="M219.15,31.48a4.26,4.26,0,0,1-3.26,1.3,5,5,0,0,1-3.45-1.3,5.74,5.74,0,0,1-.17-8.43A5.12,5.12,0,0,1,216,21.53a3.7,3.7,0,0,1,3.1,1.39V21.69h3.24v11h-3.14Zm-2.55-1.64a2.61,2.61,0,0,0,2.57-2.67,2.68,2.68,0,0,0-2.69-2.77,2.72,2.72,0,1,0,.12,5.44Z"/><path class="cls-1" d="M253.68,31.87a4.14,4.14,0,0,1-3,1.12c-3.2,0-5.23-2.39-5.23-5.82s2.24-5.81,5.42-5.81a4.17,4.17,0,0,1,3,1.14v-.86h3.29V32.26c0,4.1-2.85,5.38-6.14,5.38a9.45,9.45,0,0,1-4.09-1l1-2.7a7.64,7.64,0,0,0,3.06.68c1.31,0,2.62-.3,2.62-1.65Zm-2.3-7.41A2.38,2.38,0,0,0,249,27.14a2.45,2.45,0,0,0,2.39,2.75c1.39,0,2.38-1,2.38-2.75A2.44,2.44,0,0,0,251.38,24.46Z"/><path class="cls-1" d="M268.53,28.09a2.19,2.19,0,0,0,2.34,1.84,2.87,2.87,0,0,0,2.32-1.18l2.32,1.79a5.27,5.27,0,0,1-4.7,2.45,5.56,5.56,0,0,1-5.89-5.78c0-3.25,2.2-5.85,5.44-5.85,3.53,0,5.45,2.26,5.45,6,0,.21,0,.44,0,.69Zm0-2.08h3.87a1.93,1.93,0,0,0-1.86-2A2.12,2.12,0,0,0,268.48,26Z"/><path class="cls-1" d="M68.66,32.71h-3.6V18h3.6Z"/><path class="cls-1" d="M77.69,26.11a1.42,1.42,0,0,0-1.46-1.58,1.46,1.46,0,0,0-1.52,1.58v6.6H71.19V21.64h3.44v1.14a3.3,3.3,0,0,1,2.78-1.42c3.46,0,3.8,3,3.8,5.21v6.14H77.69Z"/><path class="cls-1" d="M87.59,21.64h1.88v2.85H87.59v4.07c0,1,.66,1.2,1.37,1.2.19,0,.36,0,.59,0v3a5.92,5.92,0,0,1-1.35.12c-2.61,0-4.13-1.2-4.13-4.49v-3.9H83V21.64h1.08V19.3h3.52Z"/><path class="cls-1" d="M110.72,25a3.86,3.86,0,0,0-.57,0c-1.71,0-2.28,1.24-2.28,2.91v4.89h-3.52V21.64h3.44v1.47a3.13,3.13,0,0,1,2.93-1.75Z"/><path class="cls-1" d="M142.76,21.64h1.88v2.85h-1.88v4.07c0,1,.66,1.2,1.37,1.2.19,0,.36,0,.59,0v3a5.92,5.92,0,0,1-1.35.12c-2.61,0-4.13-1.2-4.13-4.49v-3.9h-1.08V21.64h1.08V19.3h3.52Z"/><path class="cls-1" d="M146.6,18.76a2,2,0,1,1,2,1.89A1.89,1.89,0,0,1,146.6,18.76Zm3.76,14h-3.52V21.64h3.52Z"/><path class="cls-1" d="M158.16,29l2.09-7.34h3.67l-3.74,11.07h-4.09l-3.8-11.07h3.78Z"/><path class="cls-1" d="M120.74,31.48a4.25,4.25,0,0,1-3.26,1.3,5,5,0,0,1-3.45-1.3,5.73,5.73,0,0,1-.16-8.43,5.1,5.1,0,0,1,3.67-1.52,3.69,3.69,0,0,1,3.1,1.39V21.69h3.24v11h-3.14Zm-2.54-1.64a2.6,2.6,0,0,0,2.56-2.67,2.68,2.68,0,0,0-2.68-2.77,2.72,2.72,0,1,0,.12,5.44Z"/><path class="cls-1" d="M132,29.93a2.58,2.58,0,0,1-2.67-2.73,2.52,2.52,0,0,1,2.53-2.7,2.9,2.9,0,0,1,2.22,1.18l2.32-1.8a5.28,5.28,0,0,0-4.58-2.44h-.13a5.56,5.56,0,0,0-5.89,5.79,5.49,5.49,0,0,0,4.71,5.69,6.86,6.86,0,0,0,1.31.12,5.56,5.56,0,0,0,2.51-.61l0,0a.91.91,0,0,0,.17-.09l.2-.11.06,0L135,32l0,0h0a4.23,4.23,0,0,0,1.34-1.43l-2.32-1.8A2.87,2.87,0,0,1,132,29.93Z"/><path class="cls-1" d="M168,28.16A2.2,2.2,0,0,0,170.33,30a2.87,2.87,0,0,0,2.32-1.18L175,30.61a5.27,5.27,0,0,1-4.7,2.45,5.56,5.56,0,0,1-5.89-5.78c0-3.25,2.2-5.85,5.44-5.85,3.53,0,5.45,2.26,5.45,6,0,.21,0,.44,0,.69Zm-.05-2.08h3.87A1.93,1.93,0,0,0,170,24.13,2.12,2.12,0,0,0,167.94,26.08Z"/><path class="cls-1" d="M95,28.09a2.19,2.19,0,0,0,2.34,1.84,2.87,2.87,0,0,0,2.32-1.18L102,30.54A5.31,5.31,0,0,1,97.31,33a5.55,5.55,0,0,1-5.88-5.78c0-3.25,2.19-5.85,5.44-5.85,3.52,0,5.44,2.26,5.44,6,0,.21,0,.44,0,.69ZM95,26h3.86a1.92,1.92,0,0,0-1.85-2A2.12,2.12,0,0,0,95,26Z"/><path class="cls-2" d="M33.7,26.68l2.85,2.85h0a4,4,0,0,0,5.69,0h0a4,4,0,0,0-5.69-5.7h0"/><path class="cls-2" d="M29.53,16.81h0a4,4,0,0,0,0-5.7h0a4,4,0,0,0-5.7,5.7h0l2.85,2.85"/><path class="cls-2" d="M23.83,36.55h0a4,4,0,0,0,0,5.69h0a4,4,0,0,0,5.7-5.69h0L26.68,33.7"/><path class="cls-2" d="M19.66,26.68l-2.85-2.85h0a4,4,0,0,0-5.7,0h0a4,4,0,0,0,5.7,5.7h0"/><path class="cls-3" d="M23.83,16.81a4,4,0,0,1,5.7-5.7h0a4,4,0,0,1,0,5.7c1.59-1.6,4-1.22,6.11-1.89,1.36-.44,4.54-2.18,4.93-2.14a13.94,13.94,0,0,0-27.79,0c1.79-.15,3.51,2.21,5.25,2.75C20.11,16.18,22.18,15.16,23.83,16.81Z"/><polygon class="cls-3" points="19.66 26.68 19.66 26.68 16.81 23.83 16.81 23.83 16.81 23.83 19.66 26.68"/><polyline class="cls-3" points="36.55 23.83 36.55 23.83 36.55 23.83"/><line class="cls-3" x1="33.7" y1="26.68" x2="33.7" y2="26.68"/><rect class="cls-3" x="35.12" y="26.09" height="4.03" transform="translate(-9.58 33.07) rotate(-45)"/><path class="cls-4" d="M29.53,36.55a4,4,0,0,1-5.7,5.69h0a4,4,0,0,1,0-5.69c-1.53,1.52-4.22.53-6.2,1.22-1.45.49-4.46,2.84-4.85,2.81a13.95,13.95,0,0,0,27.8,0c-1.85.16-3.34-2.22-5.12-2.79C33.43,37.13,31.14,38.16,29.53,36.55Z"/><line class="cls-3" x1="19.66" y1="26.68" x2="19.66" y2="26.68"/><polyline class="cls-3" points="16.81 29.52 16.81 29.53 16.81 29.52"/><rect class="cls-3" x="19.66" y="26.68" transform="translate(-9.86 11.61) rotate(-26.57)"/><polygon class="cls-3" points="33.7 26.68 33.7 26.68 33.7 26.68 33.7 26.68 33.7 26.68"/><rect class="cls-3" x="26.09" y="35.12" width="4.03" transform="translate(-15.89 25.73) rotate(-39.29)"/><polyline class="cls-3" points="29.53 16.81 29.53 16.81 29.52 16.81"/><line class="cls-3" x1="26.68" y1="19.66" x2="26.68" y2="19.66"/><polygon class="cls-3" points="28.43 31.94 33.7 26.68 33.7 26.68 28.43 31.94"/><rect class="cls-3" x="23.24" y="18.23" width="4.03" transform="translate(-5.02 25.54) rotate(-49.4)"/><polyline class="cls-3" points="23.83 36.55 23.83 36.55 23.83 36.55"/><line class="cls-3" x1="26.68" y1="33.7" x2="26.68" y2="33.7"/><path class="cls-5" d="M49.27,16.81a13.83,13.83,0,0,0-8.7-4c.14,1.62-2,3.09-2.38,4.68-.61,2.27.14,4.59-1.64,6.37a4,4,0,0,1,5.69,5.7h0a4,4,0,0,1-5.69,0c1.59,1.59.94,4.07,1.61,6.15.44,1.37,2.45,4.5,2.42,4.89a14,14,0,0,0,8.69-23.76Z"/><path class="cls-6" d="M16.81,29.53a4,4,0,0,1-5.7-5.7h0a4,4,0,0,1,5.7,0c-1.62-1.62-1.23-3.92-1.89-6-.42-1.34-2.18-4.62-2.14-5a13.95,13.95,0,0,0,0,27.8c-.15-1.79,1.92-3.58,2.45-5.31C15.88,33.18,15.15,31.18,16.81,29.53Z"/><path class="cls-7" d="M16.81,23.83h0l2.85,2.85,5.44-1.92,1.58-5.1h0l-2.85-2.85h0a14,14,0,0,0-11-4A11.51,11.51,0,0,0,12.72,14,13.86,13.86,0,0,0,16.81,23.83Z"/><polygon class="cls-3" points="23.87 22.46 19.66 26.68 19.66 26.68 23.87 22.46"/><line class="cls-3" x1="19.66" y1="26.68" x2="19.66" y2="26.68"/><rect class="cls-3" x="26.68" y="33.7" transform="translate(-16.02 28.73) rotate(-45)"/><rect class="cls-3" x="26.68" y="19.66" transform="translate(-5.97 14.01) rotate(-26.57)"/><polygon class="cls-3" points="26.68 19.66 26.68 19.66 23.87 22.46 26.68 19.66 26.68 19.66"/><polyline class="cls-3" points="26.68 33.7 26.68 33.7 26.68 33.7"/><polygon class="cls-3" points="26.68 33.7 26.68 33.7 28.43 31.94 26.68 33.7 26.68 33.7"/><path class="cls-8" d="M36.55,29.53h0L33.7,26.68,28.25,28.6l-1.57,5.1h0l2.85,2.85h0a13.9,13.9,0,0,0,11,4c0-.39.06-.78.06-1.17A13.88,13.88,0,0,0,36.55,29.53Z"/><path class="cls-9" d="M40.57,12.78a11.46,11.46,0,0,0-1.17-.06,13.84,13.84,0,0,0-9.87,4.09h0L16.81,29.53h0a13.91,13.91,0,0,0-4,11c.39,0,.78.06,1.18.06a13.9,13.9,0,0,0,9.87-4.09h0L36.55,23.83h0A13.91,13.91,0,0,0,40.57,12.78Z"/></svg>