<svg id="Layer_1" data-name="Layer 1" xmlns="http://www.w3.org/2000/svg" xmlns:xlink="http://www.w3.org/1999/xlink" viewBox="0 0 108.77 108.77"><defs><style>.cls-1{fill:none;}.cls-2{fill:#cf2030;}.cls-3{fill:#f05730;}.cls-4{fill:#f9a21d;}.cls-5{fill:#e92941;}.cls-6{fill:url(#linear-gradient);}.cls-7{fill:url(#linear-gradient-2);}.cls-8{fill:url(#linear-gradient-3);}</style><linearGradient id="linear-gradient" x1="-5053.59" y1="228.99" x2="-5053.59" y2="274.14" gradientTransform="translate(5093.75 -206.2)" gradientUnits="userSpaceOnUse"><stop offset="0" stop-color="#e92941"/><stop offset="0.47" stop-color="#cf2030"/></linearGradient><linearGradient id="linear-gradient-2" x1="11782.96" y1="-128.45" x2="11782.96" y2="-83.29" gradientTransform="translate(11851.57 -39.04) rotate(180)" gradientUnits="userSpaceOnUse"><stop offset="0" stop-color="#f58721"/><stop offset="0.44" stop-color="#f05625"/></linearGradient><linearGradient id="linear-gradient-3" x1="-5049.44" y1="415.81" x2="-4992.06" y2="415.81" gradientTransform="translate(5075.25 -361.42)" gradientUnits="userSpaceOnUse"><stop offset="0" stop-color="#f05730"/><stop offset="1" stop-color="#cf2030"/></linearGradient></defs><title>IS-Logo_RGB</title><path class="cls-1" d="M68.7,54.39l5.81,5.8h0a8.2,8.2,0,0,0,11.61,0h0A8.21,8.21,0,0,0,74.51,48.58h0"/><path class="cls-1" d="M60.19,34.26h0a8.2,8.2,0,0,0,0-11.61h0A8.21,8.21,0,0,0,48.58,34.26h0l5.81,5.81"/><path class="cls-1" d="M48.58,74.51h0a8.2,8.2,0,0,0,0,11.61h0A8.21,8.21,0,0,0,60.19,74.51h0l-5.8-5.81"/><path class="cls-1" d="M40.07,54.39l-5.81-5.81h0a8.2,8.2,0,0,0-11.61,0h0A8.21,8.21,0,0,0,34.26,60.19h0"/><path class="cls-2" d="M48.58,34.26A8.21,8.21,0,1,1,60.19,22.65h0a8.2,8.2,0,0,1,0,11.61c3.26-3.25,8.2-2.48,12.46-3.85,2.78-.89,9.27-4.43,10.07-4.36a28.43,28.43,0,0,0-56.67,0c3.66-.31,7.16,4.51,10.71,5.61C41,33,45.22,30.9,48.58,34.26Z"/><polygon class="cls-2" points="40.07 54.39 40.07 54.39 34.26 48.58 34.26 48.58 34.26 48.58 40.07 54.39"/><polyline class="cls-2" points="74.51 48.58 74.51 48.58 74.51 48.58"/><line class="cls-2" x1="68.7" y1="54.39" x2="68.7" y2="54.39"/><rect class="cls-2" x="71.6" y="53.18" height="8.21" transform="translate(-19.54 67.41) rotate(-45)"/><path class="cls-3" d="M60.19,74.51A8.21,8.21,0,1,1,48.58,86.12h0a8.2,8.2,0,0,1,0-11.61C45.47,77.61,40,75.6,35.94,77c-2.95,1-9.09,5.8-9.88,5.74a28.44,28.44,0,0,0,56.67,0C79,83,75.92,78.19,72.3,77,68.15,75.69,63.48,77.8,60.19,74.51Z"/><line class="cls-2" x1="40.07" y1="54.39" x2="40.07" y2="54.39"/><polyline class="cls-2" points="34.26 60.19 34.26 60.19 34.26 60.19"/><rect class="cls-2" x="40.07" y="54.39" transform="translate(-20.09 23.66) rotate(-26.57)"/><polygon class="cls-2" points="68.7 54.39 68.7 54.39 68.7 54.39 68.7 54.39 68.7 54.39"/><rect class="cls-2" x="53.18" y="71.6" width="8.21" transform="translate(-32.39 52.46) rotate(-39.29)"/><polyline class="cls-2" points="60.19 34.26 60.19 34.26 60.19 34.26"/><line class="cls-2" x1="54.39" y1="40.07" x2="54.39" y2="40.07"/><polygon class="cls-2" points="57.97 65.12 68.7 54.39 68.7 54.39 57.97 65.12"/><rect class="cls-2" x="47.38" y="37.17" width="8.21" transform="translate(-10.24 52.07) rotate(-49.4)"/><polyline class="cls-2" points="48.58 74.51 48.58 74.51 48.58 74.51"/><line class="cls-2" x1="54.39" y1="68.7" x2="54.39" y2="68.7"/><path class="cls-4" d="M100.44,34.26a28.23,28.23,0,0,0-17.72-8.21c.27,3.31-4,6.31-4.86,9.54-1.25,4.63.28,9.36-3.35,13A8.21,8.21,0,1,1,86.12,60.19h0a8.2,8.2,0,0,1-11.61,0c3.25,3.26,1.92,8.3,3.28,12.56.89,2.78,5,9.17,4.94,10a28.45,28.45,0,0,0,17.71-48.46Z"/><path class="cls-5" d="M34.26,60.19A8.21,8.21,0,1,1,22.65,48.58h0a8.2,8.2,0,0,1,11.61,0c-3.3-3.3-2.49-8-3.85-12.32-.85-2.72-4.43-9.41-4.36-10.2a28.43,28.43,0,0,0,0,56.67c-.31-3.64,3.91-7.3,5-10.82C32.37,67.63,30.88,63.57,34.26,60.19Z"/><path class="cls-6" d="M34.26,48.58h0l5.81,5.81,11.11-3.92,3.21-10.4h0l-5.81-5.81h0a28.39,28.39,0,0,0-22.53-8.2c-.07.79-.12,1.59-.12,2.4A28.29,28.29,0,0,0,34.26,48.58Z"/><polygon class="cls-2" points="48.66 45.8 40.07 54.39 40.07 54.39 48.66 45.8"/><line class="cls-2" x1="40.07" y1="54.39" x2="40.07" y2="54.39"/><rect class="cls-2" x="54.39" y="68.7" transform="translate(-32.65 58.58) rotate(-45)"/><rect class="cls-2" x="54.39" y="40.07" transform="translate(-12.18 28.55) rotate(-26.57)"/><polygon class="cls-2" points="54.39 40.07 54.39 40.07 48.66 45.8 54.39 40.07 54.39 40.07"/><polyline class="cls-2" points="54.39 68.7 54.39 68.7 54.39 68.7"/><polygon class="cls-2" points="54.39 68.7 54.39 68.7 57.97 65.12 54.39 68.7 54.39 68.7"/><path class="cls-7" d="M74.51,60.19h0l-5.81-5.8L57.59,58.3l-3.2,10.4h0l5.8,5.81h0a28.41,28.41,0,0,0,22.54,8.21c.06-.8.11-1.6.11-2.4A28.3,28.3,0,0,0,74.51,60.19Z"/><path class="cls-8" d="M82.72,26.05c-.8-.07-1.6-.12-2.4-.12a28.3,28.3,0,0,0-20.13,8.33h0L34.26,60.19h0a28.4,28.4,0,0,0-8.2,22.54c.79.06,1.59.11,2.4.11a28.29,28.29,0,0,0,20.12-8.33h0L74.51,48.58h0A28.4,28.4,0,0,0,82.72,26.05Z"/></svg>