<?xml version="1.0" encoding="UTF-8"?>
<svg width="877px" height="877px" viewBox="0 0 877 877" version="1.1" xmlns="http://www.w3.org/2000/svg" xmlns:xlink="http://www.w3.org/1999/xlink">
    <!-- Generator: Sketch 57.1 (83088) - https://sketch.com -->
    <title>is-outline-mark</title>
    <desc>Created with Sketch.</desc>
    <g id="homepage" stroke="none" stroke-width="1" fill="none" fill-rule="evenodd">
        <g id="homepage-copy" transform="translate(-535.000000, -24.000000)">
            <g id="panel-1" transform="translate(182.000000, 0.000000)">
                <g id="background" transform="translate(323.000000, 0.000000)">
                    <g id="is-outline-mark" transform="translate(33.000000, 27.000000)">
                        <path d="M433.856226,549.856563 L391.85794,589.677594 L390.856623,590.675233 C389.570267,591.960404 388.14323,593.387046 386.856874,594.671299 C376.428103,606.233251 370,621.503736 370,638.346008 C370,671.746692 400.189372,704 435.714501,704 C471.999122,704 501.428082,674.598138 502,638.631704 C502,623.571586 496.773661,609.769999 488.160868,598.71146 C485.514597,596.210014 482.794767,593.782978 480.285499,591.103317 L437.570936,550.427036 L435.943452,548.917717 L436.388481,548.494226 L435.85702,548 L433.856226,549.856563 Z" id="Stroke-1" stroke="#FEFEFE" stroke-width="5"></path>
                        <path d="M434.482577,170 C398.326013,170 369,199.611209 369,235.801869 C369,251.536938 374.551483,265.984844 383.805482,277.286656 C385.940315,279.575561 388.076065,281.578122 390.068881,283.723395 L393.627548,287.156752 L432.917644,324.778207 L434.226031,326 L435.052477,325.208183 L438.611143,321.774825 L479.751123,282.436231 C482.41096,279.605024 485.266873,276.969008 488.066894,274.276829 C495.847583,263.47957 500.449844,250.171513 499.965155,235.801869 C499.965155,199.467577 470.640057,170 434.482577,170 Z" id="Stroke-3" stroke="#FEFEFE" stroke-width="5"></path>
                        <path d="M661,212 C661.017,212.671088 661.017,213.32626 661.033,213.993369 C661.071,213.998674 661.112,213.996021 661.151,214 C661.119,213.32626 661.034,212.67374 661,212" id="Fill-5" fill="#CF202E"></path>
                        <path d="M661,212 C661.017,212.671088 661.017,213.32626 661.033,213.993369 C661.071,213.998674 661.112,213.996021 661.151,214 C661.119,213.32626 661.034,212.67374 661,212 Z" id="Stroke-7" stroke="#FEFEFE" stroke-width="5"></path>
                        <path d="M435.221851,0 L435.078544,0 L434.935236,0 C314.33169,0.143289015 216.851211,94.7581282 210.285697,213.6329 C210.28386,213.691685 210.28386,213.748633 210.281104,213.807419 C210.140552,218.168548 210,222.397411 210,226.762215 C210,287.185172 233.773464,342.170495 272.358147,382.856309 C275.329026,385.98846 278.362373,389.059988 281.505037,392.01762 L322.32477,434.973095 L323.351808,436 L324.037113,435.258755 L361.432158,396.013179 L434.249931,326.591489 L432.938114,325.373532 L393.545029,287.840995 L389.977034,284.415836 C387.978994,282.275686 385.837646,280.277907 383.698135,277.994468 C374.418961,266.720562 368.852926,252.306238 368.852926,236.609661 C368.852926,200.504503 398.25581,170.964003 434.50715,170.964003 C470.760327,170.964003 500.161374,200.361214 500.161374,236.609661 C500.647334,250.944992 496.03301,264.22127 488.231926,274.991828 C521.329577,243.331385 563.849711,221.308047 611.345194,214.204219 C622.478182,212.49118 633.752641,211.63512 645.172245,211.63512 C650.304682,211.63512 655.151422,211.919861 660,212.205521 C656.717702,164.308412 639.153321,120.627307 611.202805,85.3396309 C570.241602,33.5369778 506.869278,0.143289015 435.221851,0 Z" id="Stroke-9" stroke="#FEFEFE" stroke-width="5"></path>
                        <path d="M658.421973,661.428626 C658.850426,656.139051 659.13392,650.707781 659.13392,645.132059 C659.13392,630.550532 657.710026,616.542219 655.143897,602.960825 C648.302417,566.223621 632.479945,532.486819 610.099487,504.183126 C604.684653,496.891442 598.411996,490.172972 591.85401,483.740649 C593.671493,485.382083 595.608246,486.884584 597.600046,488.318078 C594.830242,485.422567 592.071447,482.516934 589.146593,479.738274 L549.948221,438.424561 L546.663723,435 L475.969036,509.900542 L436.752315,547.409698 L436.444049,547.704125 L436,548.128285 L437.6239,549.640907 L480.244388,590.381406 C482.748129,593.065298 485.461969,595.496166 488.101494,598.00064 C489.819892,599.632873 491.417185,601.382877 493.216319,602.960825 C525.431004,632.409106 566.340434,652.708969 611.526133,659.426519 C622.644801,661.14248 633.905674,662 645.308753,662 C650.106138,662 654.905359,661.851866 659.838527,661.434147 C659.889905,661.429547 659.93853,661.433227 659.990825,661.428626 C659.993578,661.371581 659.997248,661.316376 660,661.259331 C659.468792,661.297054 658.955016,661.394583 658.421973,661.428626 Z" id="Stroke-11" stroke="#FEFEFE" stroke-width="5"></path>
                        <path d="M660.685788,212 C660.696816,212.414464 660.700492,212.821577 660.713358,213.235122 C660.837424,217.107745 660.965167,220.905929 660.965167,224.805203 C660.965167,277.918214 642.688841,326.749652 611.990276,365.444633 C607.701263,370.894242 603.045565,376.087453 598.232717,381.132707 C608.871161,373.611695 621.704198,369.013071 635.692429,369.013071 C671.816821,369.013071 701.372139,398.425337 701.372139,434.692347 C701.372139,471.100882 671.959267,500.370705 635.692429,500.370705 C621.493745,500.370705 608.441065,495.769323 597.754832,488.095759 C595.760583,486.663054 593.819637,485.163263 592,483.522866 C598.568155,489.948442 604.851417,496.657986 610.275406,503.94098 C632.693703,532.211861 648.542927,565.908457 655.395974,602.601879 C657.966441,616.166167 659.393662,630.158705 659.393662,644.722854 C659.393662,650.291013 659.108769,655.716728 658.679592,661 C659.213536,660.965078 659.728181,660.868584 660.260287,660.830906 C713.025169,657.086023 760.712528,635.960287 797.323076,602.601879 C842.441806,561.482603 870.856635,502.513789 871,436.547787 L871,436.405344 L871,436.262901 C870.856635,316.632494 778.088225,220.122031 660.685788,212 Z" id="Stroke-13" stroke="#FEFEFE" stroke-width="5"></path>
                        <path d="M645.445126,662.000937 C634.022348,662.000937 622.742021,661.143395 611.604147,659.427392 C566.34039,652.709677 525.360289,632.409314 493.089954,602.960307 C491.287711,601.38232 489.687659,599.632273 487.966292,598 C496.575881,609.076271 501.799718,622.900908 501.799718,637.984254 C501.228074,674.009279 471.813203,703.458285 435.545952,703.458285 C400.03783,703.458285 369.862911,671.15234 369.862911,637.69902 C369.862911,623.053646 374.716374,609.602574 382.814057,598.730566 C381.206651,600.27727 379.641522,601.906783 378.00287,603.389998 C337.735946,639.986411 284.332231,662.430628 225.64586,662.430628 C221.375989,662.430628 217.398373,662.221763 213.391348,661.990816 C212.595458,661.94481 211.801405,661.907086 211,661.86108 C220.105872,778.686391 316.193592,870.715686 435.261049,871 L435.402582,871 L435.545952,871 C507.224826,870.857383 570.480676,837.405903 611.604147,785.513599 C638.879487,750.991112 656.592191,708.051469 660,661.43507 C655.058309,661.852799 650.250798,662.000937 645.445126,662.000937 Z" id="Stroke-15" stroke="#FEFEFE" stroke-width="5"></path>
                        <path d="M210,661 C210.023,661.329 210.09,661.646 210.115,661.975 C210.09,661.658 210.097,661.32 210.073,661.002 C210.048,661 210.024,661.002 210,661" id="Fill-17" fill="#EF5322"></path>
                        <path d="M210,661 C210.023,661.329 210.09,661.646 210.115,661.975 C210.09,661.658 210.097,661.32 210.073,661.002 C210.048,661 210.024,661.002 210,661 Z" id="Stroke-19" stroke="#FEFEFE" stroke-width="5"></path>
                        <path d="M235.794327,371.351033 C249.647572,371.351033 262.471239,375.767507 273,383.022685 C234.31995,342.343178 210.487728,287.366379 210.487728,226.953707 C210.487728,222.58958 210.628627,218.360454 210.769526,214 C93.1886954,222.319577 0.141820095,318.663747 0,438.127139 L0,438.270406 L0,438.412754 C0.142741005,504.4762 28.4726864,563.548042 73.8284106,604.356122 C110.885817,638.029331 159.962017,659.575372 213.474238,663 C213.457662,662.681323 213.517521,662.318564 213.517521,661.990704 C212.698832,661.943867 211.882906,661.906213 211.059613,661.857539 C210.630469,656.57779 210.344066,651.156611 210.344066,645.591247 C210.344066,631.037727 211.774239,617.05452 214.350023,603.499276 C222.21275,561.555164 241.736957,523.636298 269.383588,493.231593 C259.545509,499.141348 248.092155,502.62016 235.794327,502.62016 C199.595208,502.62016 169.977831,473.229343 169.977831,436.985596 C169.977831,400.601338 199.451546,371.351033 235.794327,371.351033 Z" id="Stroke-21" stroke="#FEFEFE" stroke-width="5"></path>
                        <path d="M660.748901,213.138038 C660.735105,212.723483 660.731426,212.316281 660.721308,211.902645 C660.720388,211.853928 660.720388,211.80613 660.718549,211.756494 C660.716709,211.693989 660.716709,211.634242 660.71395,211.571737 C660.710271,211.571737 660.703832,211.570817 660.699233,211.570817 C655.845578,211.284949 650.992842,211 645.854055,211 C634.420325,211 623.131919,211.856686 611.984239,213.570976 C564.430002,220.679997 521.858189,242.719433 488.719595,274.403017 C485.908761,277.090731 483.04182,279.723293 480.371712,282.548885 L439.072868,321.822227 L435.50046,325.249889 L434.670822,326.040393 L361.762971,395.512827 L324.321667,434.787088 L323.635514,435.528875 L320.892743,438.500619 L281.594412,479.772281 C277.21444,483.893932 273.008307,488.197583 268.965893,492.652901 C241.35331,523.084547 221.854068,561.037012 214.001024,603.01829 C211.428411,616.585545 210,630.581143 210,645.147558 C210,650.132329 210.28513,654.961757 210.639244,659.71673 C210.661319,660.009033 210.65488,660.319719 210.677875,660.610184 C210.699029,660.876749 210.692591,661.162617 210.713746,661.428263 C210.733981,661.429183 210.755136,661.430102 210.775371,661.431021 C211.577415,661.4779 212.372101,661.515586 213.168627,661.561546 C217.178848,661.792263 221.159637,662 225.432915,662 C284.166104,662 337.612424,639.5791 377.911471,603.01829 C379.551431,601.537474 381.117809,599.908668 382.726496,598.364428 C385.461909,595.73738 388.215717,593.148939 390.915258,590.451115 L433.641593,549.74935 L435.643025,547.893504 L435.729484,547.810777 L475.799507,509.619323 L546.673735,434.792603 L546.677414,434.787088 L548.53628,432.929404 L589.406508,389.94345 C592.454644,387.111424 595.335382,384.089125 598.216119,381.072341 C603.032983,376.025984 607.691647,370.831637 611.984239,365.379917 C642.709343,326.677393 661,277.835275 661,224.709729 C661,220.810522 660.873071,217.010588 660.748901,213.138038 Z" id="Stroke-23" stroke="#FEFEFE" stroke-width="5"></path>
                    </g>
                </g>
            </g>
        </g>
    </g>
</svg>